<svg id="Layer_1" data-name="Layer 1" xmlns="http://www.w3.org/2000/svg" viewBox="0 0 1080 1080"><defs><style>.cls-1{fill:#8c1bc4;}</style></defs><path class="cls-1" d="M627.37,574.94a9.46,9.46,0,0,0,9.45-8.89,8.25,8.25,0,0,0-8-8.65c-4.94-.11-9.63,4.31-9.72,9.18A8.18,8.18,0,0,0,627.37,574.94Z"/><path class="cls-1" d="M326.89,503q-12.92-5.83-31-5.83H240V633.06h25.23v-39.2h30.66q18.06,0,31-5.82a45,45,0,0,0,19.9-16.7q7-10.86,7-25.81t-7-25.81A44.9,44.9,0,0,0,326.89,503Zm-7,62.39q-8.45,7.1-25.14,7.09h-29.5v-54h29.5q16.68,0,25.14,7t8.44,20Q328.35,558.34,319.91,565.42Z"/><rect class="cls-1" x="379" y="497.2" width="25.23" height="135.86"/><polygon class="cls-1" points="423.45 518.55 468.48 518.55 468.48 633.07 493.71 633.07 493.71 518.55 538.74 518.55 538.74 497.2 423.45 497.2 423.45 518.55"/><path class="cls-1" d="M753.38,479.26a41.77,41.77,0,1,0-76.44-33.72l0,.08-21.34-7.54a36.62,36.62,0,1,0-4,13.16L673.53,459a41.85,41.85,0,0,0,12.55,33.41L667.57,514a70.33,70.33,0,0,0-105.43,92.13l73.15-71.9c3.59,3.68,6.78,6.81,9.77,10.12a5.49,5.49,0,0,1,1,3.33c.07,5.17,0,10.35,0,15.52-.23,13.5-14.56,24.13-26.73,19.69-2.6-.95-4.88-2.79-7.94-4.59-13.18,12.84-26.48,25.65-40.27,38A70.33,70.33,0,0,0,679,528l22.38-26.13A41.77,41.77,0,0,0,753.38,479.26Z"/><circle class="cls-1" cx="651.6" cy="480.78" r="7.86"/><circle class="cls-1" cx="673.38" cy="401.47" r="10.95"/><path class="cls-1" d="M814.93,497.2v92L745.54,504a51.62,51.62,0,0,1-26.3,9.77v119.3h25v-92l74.92,92H840V497.2Z"/></svg>